<?xml version="1.0" encoding="UTF-8"?>
<svg width="21px" height="21px" viewBox="0 0 21 21" version="1.1" xmlns="http://www.w3.org/2000/svg" xmlns:xlink="http://www.w3.org/1999/xlink">
    <!-- Generator: Sketch 43.2 (39069) - http://www.bohemiancoding.com/sketch -->
    <title>accesibility</title>
    <desc>Created with Sketch.</desc>
    <defs></defs>
    <g id="Page-1" stroke="none" stroke-width="1" fill="none" fill-rule="evenodd">
        <g id="Desktop-HD" transform="translate(-1299.000000, -1923.000000)" fill="#717171">
            <path d="M1315.10158,1930.69921 C1315.00783,1930.30077 1314.60939,1930.05467 1314.19924,1930.14842 C1312.52345,1930.54686 1311.00001,1930.87499 1309.50001,1930.87499 C1308.00001,1930.87499 1306.47657,1930.54686 1304.80079,1930.14842 C1304.39063,1930.05467 1303.99219,1930.30077 1303.89844,1930.69921 C1303.80469,1931.10936 1304.05079,1931.5078 1304.44923,1931.60155 C1305.69141,1931.89452 1306.85157,1932.15233 1308.00001,1932.28124 C1307.95314,1936.24218 1307.51954,1937.34375 1307.02735,1938.60937 L1306.92188,1938.85547 C1306.76954,1939.24219 1306.96876,1939.67578 1307.35548,1939.82812 C1307.43751,1939.86328 1307.53126,1939.875 1307.62501,1939.875 C1307.9297,1939.875 1308.21095,1939.69922 1308.32814,1939.39453 L1308.42189,1939.16015 C1308.75001,1938.3164 1309.0547,1937.53125 1309.25392,1936.12499 L1309.74611,1936.12499 C1309.94533,1937.53125 1310.25001,1938.3164 1310.57814,1939.16015 L1310.67189,1939.39453 C1310.78908,1939.69922 1311.07033,1939.875 1311.37501,1939.875 C1311.46876,1939.875 1311.56251,1939.86328 1311.64455,1939.82812 C1312.03127,1939.67578 1312.23048,1939.24219 1312.07814,1938.85547 L1311.97267,1938.60937 C1311.48048,1937.34375 1311.04689,1936.24218 1311.00001,1932.28124 C1312.14845,1932.15233 1313.30861,1931.89452 1314.5508,1931.60155 C1314.94924,1931.5078 1315.19533,1931.10936 1315.10158,1930.69921 Z M1311.00001,1928.99999 C1311.00001,1928.16795 1310.33204,1927.49998 1309.50001,1927.49998 C1308.66798,1927.49998 1308.00001,1928.16795 1308.00001,1928.99999 C1308.00001,1929.83202 1308.66798,1930.49999 1309.50001,1930.49999 C1310.33204,1930.49999 1311.00001,1929.83202 1311.00001,1928.99999 Z M1317.75002,1933.49999 C1317.75002,1938.05859 1314.05861,1941.75 1309.50001,1941.75 C1304.94141,1941.75 1301.25,1938.05859 1301.25,1933.49999 C1301.25,1928.94139 1304.94141,1925.24998 1309.50001,1925.24998 C1314.05861,1925.24998 1317.75002,1928.94139 1317.75002,1933.49999 Z M1309.50001,1924.49998 C1304.54298,1924.49998 1300.5,1928.54295 1300.5,1933.49999 C1300.5,1938.45703 1304.54298,1942.5 1309.50001,1942.5 C1314.45705,1942.5 1318.50002,1938.45703 1318.50002,1933.49999 C1318.50002,1928.54295 1314.45705,1924.49998 1309.50001,1924.49998 Z M1320.00003,1933.49999 C1320.00003,1939.30078 1315.3008,1944 1309.50001,1944 C1303.69922,1944 1299,1939.30078 1299,1933.49999 C1299,1927.6992 1303.69922,1922.99998 1309.50001,1922.99998 C1315.3008,1922.99998 1320.00003,1927.6992 1320.00003,1933.49999 Z" id="accesibility"></path>
        </g>
    </g>
</svg>