<?xml version="1.0" encoding="UTF-8"?>
<svg width="21px" height="21px" viewBox="0 0 21 21" version="1.1" xmlns="http://www.w3.org/2000/svg" xmlns:xlink="http://www.w3.org/1999/xlink">
    <!-- Generator: Sketch 43.2 (39069) - http://www.bohemiancoding.com/sketch -->
    <title>creative-commons</title>
    <desc>Created with Sketch.</desc>
    <defs></defs>
    <g id="Page-1" stroke="none" stroke-width="1" fill="none" fill-rule="evenodd">
        <g id="Desktop-HD" transform="translate(-1259.000000, -1923.000000)" fill="#717171">
            <path d="M1266.08985,1937.44921 C1263.7461,1937.44921 1262.0586,1935.78515 1262.0586,1933.49999 C1262.0586,1931.24999 1263.78126,1929.55077 1266.08985,1929.55077 C1267.95314,1929.55077 1268.90236,1930.62889 1268.93751,1930.67577 C1269.04298,1930.80468 1269.0547,1930.99218 1268.96095,1931.1328 L1268.33985,1932.04686 C1268.28126,1932.14061 1268.17579,1932.19921 1268.0586,1932.21093 C1267.94142,1932.22265 1267.83595,1932.17577 1267.75392,1932.09374 C1267.75392,1932.09374 1267.10938,1931.43749 1266.13673,1931.43749 C1264.97657,1931.43749 1264.14454,1932.29296 1264.14454,1933.48827 C1264.14454,1934.6953 1265.00001,1935.56249 1266.1836,1935.56249 C1267.26173,1935.56249 1268.00001,1934.77734 1268.01173,1934.77734 C1268.09376,1934.68359 1268.21095,1934.63671 1268.32814,1934.64843 C1268.44532,1934.67187 1268.56251,1934.74218 1268.60939,1934.84765 L1269.13673,1935.80859 C1269.21876,1935.93749 1269.19532,1936.11328 1269.10157,1936.23046 C1269.0547,1936.27734 1268.01173,1937.44921 1266.08985,1937.44921 Z M1273.47267,1937.44921 C1271.12892,1937.44921 1269.44142,1935.78515 1269.44142,1933.49999 C1269.44142,1931.24999 1271.1758,1929.55077 1273.47267,1929.55077 C1275.33596,1929.55077 1276.28518,1930.62889 1276.32033,1930.67577 C1276.4258,1930.80468 1276.43752,1930.99218 1276.34377,1931.1328 L1275.72268,1932.04686 C1275.66408,1932.14061 1275.55861,1932.19921 1275.44143,1932.21093 C1275.32424,1932.22265 1275.21877,1932.17577 1275.13674,1932.09374 C1275.13674,1932.09374 1274.50392,1931.43749 1273.51955,1931.43749 C1272.35939,1931.43749 1271.52736,1932.29296 1271.52736,1933.48827 C1271.52736,1934.6953 1272.38283,1935.56249 1273.56642,1935.56249 C1274.64455,1935.56249 1275.38283,1934.77734 1275.39455,1934.77734 C1275.47658,1934.68359 1275.59377,1934.63671 1275.71096,1934.64843 C1275.83986,1934.67187 1275.94533,1934.74218 1276.00393,1934.84765 L1276.53127,1935.80859 C1276.60158,1935.93749 1276.57815,1936.11328 1276.4844,1936.23046 C1276.43752,1936.27734 1275.40627,1937.44921 1273.47267,1937.44921 Z M1269.50001,1924.87498 C1264.74219,1924.87498 1260.875,1928.74217 1260.875,1933.49999 C1260.875,1938.25781 1264.74219,1942.125 1269.50001,1942.125 C1274.25783,1942.125 1278.12502,1938.25781 1278.12502,1933.49999 C1278.12502,1928.74217 1274.25783,1924.87498 1269.50001,1924.87498 Z M1269.50001,1922.99998 C1275.3008,1922.99998 1280.00003,1927.6992 1280.00003,1933.49999 C1280.00003,1939.30078 1275.3008,1944 1269.50001,1944 C1263.69922,1944 1259,1939.30078 1259,1933.49999 C1259,1927.6992 1263.69922,1922.99998 1269.50001,1922.99998 Z" id="creative-commons"></path>
        </g>
    </g>
</svg>