<?xml version="1.0" encoding="UTF-8"?>
<svg width="18px" height="19px" viewBox="0 0 18 19" version="1.1" xmlns="http://www.w3.org/2000/svg" xmlns:xlink="http://www.w3.org/1999/xlink">
    <!-- Generator: Sketch 43.2 (39069) - http://www.bohemiancoding.com/sketch -->
    <title>github</title>
    <desc>Created with Sketch.</desc>
    <defs></defs>
    <g id="Page-1" stroke="none" stroke-width="1" fill="none" fill-rule="evenodd">
        <g id="Desktop-HD" transform="translate(-1342.000000, -1924.000000)" fill="#717171">
            <path d="M1351.00001,1924.49998 C1355.96877,1924.49998 1360.00002,1928.53124 1360.00002,1933.49999 C1360.00002,1937.47265 1357.42189,1940.84766 1353.84767,1942.04297 C1353.39064,1942.125 1353.22658,1941.84375 1353.22658,1941.60938 C1353.22658,1941.31641 1353.23829,1940.34375 1353.23829,1939.13672 C1353.23829,1938.29297 1352.95704,1937.7539 1352.62892,1937.47265 C1354.63283,1937.25 1356.74221,1936.48828 1356.74221,1933.03124 C1356.74221,1932.04686 1356.39064,1931.24999 1355.81642,1930.61718 C1355.91017,1930.3828 1356.21486,1929.46874 1355.72267,1928.22655 C1354.97267,1927.99217 1353.25001,1929.15233 1353.25001,1929.15233 C1352.53517,1928.95311 1351.76173,1928.84764 1351.00001,1928.84764 C1350.23829,1928.84764 1349.46485,1928.95311 1348.75001,1929.15233 C1348.75001,1929.15233 1347.02735,1927.99217 1346.27735,1928.22655 C1345.78516,1929.46874 1346.08985,1930.3828 1346.1836,1930.61718 C1345.60938,1931.24999 1345.25782,1932.04686 1345.25782,1933.03124 C1345.25782,1936.47656 1347.35548,1937.25 1349.35938,1937.47265 C1349.10157,1937.70703 1348.8672,1938.10547 1348.78516,1938.67968 C1348.26954,1938.91406 1346.95704,1939.3125 1346.17188,1937.92968 C1345.67969,1937.07421 1344.78907,1937.0039 1344.78907,1937.0039 C1343.91016,1936.99218 1344.73047,1937.55468 1344.73047,1937.55468 C1345.31641,1937.82421 1345.72657,1938.86718 1345.72657,1938.86718 C1346.25391,1940.47266 1348.76173,1939.93359 1348.76173,1939.93359 C1348.76173,1940.68359 1348.77345,1941.38672 1348.77345,1941.60938 C1348.77345,1941.84375 1348.60938,1942.125 1348.15235,1942.04297 C1344.57813,1940.84766 1342,1937.47265 1342,1933.49999 C1342,1928.53124 1346.03125,1924.49998 1351.00001,1924.49998 Z M1345.41016,1937.42578 C1345.38672,1937.47265 1345.31641,1937.48437 1345.25782,1937.44921 C1345.1875,1937.41406 1345.15235,1937.35546 1345.17579,1937.30859 C1345.19922,1937.27343 1345.25782,1937.26171 1345.32813,1937.28515 C1345.39844,1937.32031 1345.4336,1937.3789 1345.41016,1937.42578 Z M1345.77344,1937.82421 C1345.72657,1937.87109 1345.64454,1937.84765 1345.58594,1937.78906 C1345.52735,1937.71875 1345.51563,1937.63671 1345.5625,1937.60156 C1345.60938,1937.55468 1345.69141,1937.57812 1345.75,1937.63671 C1345.8086,1937.70703 1345.82032,1937.78906 1345.77344,1937.82421 Z M1346.125,1938.35156 C1346.07813,1938.38672 1345.98438,1938.35156 1345.92579,1938.26953 C1345.86719,1938.1875 1345.86719,1938.09375 1345.92579,1938.05859 C1345.98438,1938.01172 1346.07813,1938.04687 1346.125,1938.1289 C1346.1836,1938.21093 1346.1836,1938.30468 1346.125,1938.35156 Z M1346.61719,1938.84375 C1346.57032,1938.90234 1346.46485,1938.89062 1346.38282,1938.80859 C1346.30079,1938.73828 1346.27735,1938.63281 1346.33594,1938.58593 C1346.38282,1938.52734 1346.48829,1938.53906 1346.57032,1938.62109 C1346.64063,1938.6914 1346.66407,1938.79687 1346.61719,1938.84375 Z M1347.28516,1939.13672 C1347.26173,1939.20703 1347.15626,1939.24219 1347.06251,1939.20703 C1346.95704,1939.18359 1346.88672,1939.10156 1346.91016,1939.03125 C1346.9336,1938.96094 1347.03907,1938.92578 1347.13282,1938.94922 C1347.23829,1938.98437 1347.3086,1939.0664 1347.28516,1939.13672 Z M1348.02344,1939.19531 C1348.02344,1939.26562 1347.94141,1939.32422 1347.83594,1939.32422 C1347.71876,1939.33594 1347.63673,1939.27734 1347.63673,1939.19531 C1347.63673,1939.125 1347.71876,1939.0664 1347.82423,1939.0664 C1347.92969,1939.05469 1348.02344,1939.11328 1348.02344,1939.19531 Z M1348.70313,1939.07812 C1348.71485,1939.14844 1348.64454,1939.21875 1348.53907,1939.24219 C1348.4336,1939.26562 1348.33985,1939.21875 1348.32813,1939.14844 C1348.31641,1939.0664 1348.38673,1938.99609 1348.4922,1938.97265 C1348.59766,1938.96094 1348.69141,1939.00781 1348.70313,1939.07812 Z" id="github"></path>
        </g>
    </g>
</svg>