<?xml version="1.0" encoding="UTF-8"?>
<svg width="600px" height="400px" viewBox="0 0 600 400" version="1.1" xmlns="http://www.w3.org/2000/svg" xmlns:xlink="http://www.w3.org/1999/xlink">
    <!-- Generator: Sketch 43.2 (39069) - http://www.bohemiancoding.com/sketch -->
    <title>logo</title>
    <desc>Created with Sketch.</desc>
    <defs></defs>
    <g id="Page-1" stroke="none" stroke-width="1" fill="none" fill-rule="evenodd">
        <g id="logo" fill-rule="nonzero" fill="#000000">
            <path d="M358.819244,226.259647 L357.346063,226.259647 L357.346063,244.202301 L386.455857,244.202301 L386.455857,226.259647 L386.119876,226.259647 L386.119876,227.667176 C386.119876,229.781998 384.405474,231.496401 382.290651,231.496401 C380.175829,231.496401 378.461426,229.781998 378.461426,227.667176 L378.461426,226.259647 L375.50248,226.259647 L375.50248,232.90393 C375.50248,235.018752 373.788078,236.733155 371.673255,236.733155 C369.558433,236.733155 367.84403,235.018752 367.84403,232.90393 L367.84403,226.259647 L366.477693,226.259647 L366.477693,229.761877 C366.477693,231.8767 364.763291,233.591102 362.648468,233.591102 C360.533646,233.591102 358.819244,231.8767 358.819244,229.761877 L358.819244,226.259647 Z M394.114307,244.202301 L398.753908,244.202301 L398.753908,254.431801 C398.753908,260.079767 394.171621,264.661302 388.526901,264.661302 L379.442686,264.661302 C379.499831,265.03821 379.529459,265.424151 379.529459,265.817019 L379.529459,273.671519 C379.529459,278.068509 375.965248,281.632973 371.566412,281.632973 C367.168542,281.632973 363.603365,278.068738 363.603365,273.671519 L363.603365,265.817019 C363.603365,265.424162 363.63306,265.03822 363.690324,264.661302 L354.605922,264.661302 C348.959184,264.661302 344.378915,260.075691 344.378915,254.431801 L344.378915,244.202301 L349.687613,244.202301 L349.687613,222.430422 C349.687613,221.373011 350.116214,220.415705 350.809167,219.722751 C351.502121,219.029798 352.459427,218.601197 353.516838,218.601197 L390.285082,218.601197 C391.342493,218.601197 392.2998,219.029798 392.992753,219.722751 C393.685706,220.415705 394.114307,221.373011 394.114307,222.430422 L394.114307,244.202301 Z M389.611841,251.86075 L352.037365,251.86075 L352.037365,254.431801 C352.037365,255.848044 353.190828,257.002852 354.605922,257.002852 L388.526901,257.002852 C389.942258,257.002852 391.095459,255.849841 391.095459,254.431801 L391.095459,251.86075 L390.958324,251.86075 C390.739756,251.899516 390.514781,251.919741 390.285082,251.919741 C390.055383,251.919741 389.830408,251.899516 389.611841,251.86075 Z M209.154391,96.274985 L187.710731,144.523218 C186.851821,146.455767 187.722177,148.718693 189.654726,149.577604 C191.587275,150.436514 193.8502,149.566158 194.709111,147.633609 L216.15277,99.385376 C217.011681,97.4528268 216.141325,95.1899014 214.208776,94.3309906 C212.276227,93.4720799 210.013301,94.3424358 209.154391,96.274985 Z M174.944564,125.529408 L186.90484,117.605363 C188.667837,116.437324 189.150146,114.061249 187.982106,112.298252 C186.814067,110.535255 184.437993,110.052946 182.674996,111.220985 L170.71472,119.145031 C168.951723,120.31307 168.469414,122.689144 169.637453,124.452141 C170.805492,126.215139 173.181567,126.697447 174.944564,125.529408 Z M186.90484,127.069076 L174.944564,119.145031 C173.181567,117.976992 170.805492,118.459301 169.637453,120.222298 C168.469414,121.985295 168.951723,124.361369 170.71472,125.529408 L182.674996,133.453454 C184.437993,134.621493 186.814067,134.139184 187.982106,132.376187 C189.150146,130.61319 188.667837,128.237116 186.90484,127.069076 Z M229.792158,119.145031 L217.831882,111.220985 C216.068885,110.052946 213.692811,110.535255 212.524772,112.298252 C211.356733,114.061249 211.839041,116.437324 213.602038,117.605363 L225.562314,125.529408 C227.325311,126.697447 229.701386,126.215139 230.869425,124.452141 C232.037464,122.689144 231.555155,120.31307 229.792158,119.145031 Z M217.831882,133.453454 L229.792158,125.529408 C231.555155,124.361369 232.037464,121.985295 230.869425,120.222298 C229.701386,118.459301 227.325311,117.976992 225.562314,119.145031 L213.602038,127.069076 C211.839041,128.237116 211.356733,130.61319 212.524772,132.376187 C213.692811,134.139184 216.068885,134.621493 217.831882,133.453454 Z M195.804991,245.63826 L323.703394,245.63826 C325.818217,245.63826 327.532619,243.923857 327.532619,241.809035 C327.532619,239.694212 325.818217,237.97981 323.703394,237.97981 L195.804991,237.97981 C193.690169,237.97981 191.975766,239.694212 191.975766,241.809035 C191.975766,243.923857 193.690169,245.63826 195.804991,245.63826 Z M258.090339,306.884818 C258.249752,306.901598 258.502485,306.922455 258.840178,306.941915 C263.192942,307.192752 268.306955,306.665627 273.303284,304.684 C277.461956,303.034602 281.024391,300.511942 283.735841,296.987058 C285.91758,294.150796 286.954446,289.289776 287.435119,282.51704 C287.727912,278.39155 287.762874,274.04578 287.648266,270.061242 C287.635486,269.616932 287.621752,269.21872 287.607954,268.871754 C287.599518,268.659613 287.5928,268.509153 287.588689,268.425541 C287.484822,266.313271 285.688288,264.685138 283.576017,264.789005 C281.463747,264.892872 279.835614,266.689406 279.939481,268.801676 C279.942437,268.861789 279.948087,268.988342 279.955553,269.176068 C279.968257,269.495548 279.981026,269.865765 279.992982,270.281433 C280.100896,274.03324 280.067832,278.143093 279.795884,281.97487 C279.42287,287.230677 278.595747,291.108388 277.66557,292.317618 C275.849351,294.678702 273.42032,296.398768 270.479784,297.565033 C266.688201,299.068837 262.617424,299.488431 259.280781,299.29615 C259.066654,299.28381 258.934048,299.272867 258.892062,299.268448 C256.78886,299.047058 254.904406,300.572569 254.683016,302.675771 C254.461626,304.778974 255.987137,306.663428 258.090339,306.884818 Z M337.851294,299.268448 C337.809308,299.272867 337.676702,299.28381 337.462575,299.29615 C334.125933,299.488431 330.055155,299.068837 326.263572,297.565033 C323.323037,296.398768 320.894005,294.678702 319.077787,292.317618 C318.14761,291.108388 317.320486,287.230677 316.947472,281.97487 C316.675524,278.143093 316.64246,274.03324 316.750375,270.281433 C316.76233,269.865765 316.775099,269.495548 316.787804,269.176068 C316.795269,268.988342 316.800919,268.861789 316.803875,268.801676 C316.907742,266.689406 315.279609,264.892872 313.167339,264.789005 C311.055069,264.685138 309.258535,266.313271 309.154668,268.425541 C309.150556,268.509153 309.143839,268.659613 309.135403,268.871754 C309.121605,269.21872 309.107871,269.616932 309.095091,270.061242 C308.980483,274.04578 309.015445,278.39155 309.308238,282.51704 C309.788911,289.289776 310.825776,294.150796 313.007516,296.987058 C315.718965,300.511942 319.281401,303.034602 323.440072,304.684 C328.436401,306.665627 333.550415,307.192752 337.903179,306.941915 C338.240871,306.922455 338.493604,306.901598 338.653017,306.884818 C340.75622,306.663428 342.28173,304.778974 342.060341,302.675771 C341.838951,300.572569 339.954496,299.047058 337.851294,299.268448 Z M338.252156,299.247408 L258.589964,299.247408 C256.475141,299.247408 254.760739,300.96181 254.760739,303.076633 C254.760739,305.191455 256.475141,306.905857 258.589964,306.905857 L338.252156,306.905857 C340.366978,306.905857 342.08138,305.191455 342.08138,303.076633 C342.08138,300.96181 340.366978,299.247408 338.252156,299.247408 Z M251.328751,124.634754 L388.029598,124.634754 C393.530576,124.634754 397.988063,129.090709 397.988063,134.590025 L397.988063,202.884826 C397.988063,204.999648 399.702466,206.714051 401.817288,206.714051 C403.932111,206.714051 405.646513,204.999648 405.646513,202.884826 L405.646513,134.590025 C405.646513,124.860474 397.759631,116.976305 388.029598,116.976305 L251.328751,116.976305 C249.213929,116.976305 247.499527,118.690707 247.499527,120.80553 C247.499527,122.920352 249.213929,124.634754 251.328751,124.634754 Z M335.691213,262.486849 L208.829789,262.486849 C203.327332,262.486849 198.868371,258.029285 198.868371,252.528456 L198.868371,168.287918 C198.868371,166.173095 197.153969,164.458693 195.039146,164.458693 C192.924324,164.458693 191.209921,166.173095 191.209921,168.287918 L191.209921,252.528456 C191.209921,262.259468 199.098224,270.145299 208.829789,270.145299 L335.691213,270.145299 C337.806036,270.145299 339.520438,268.430897 339.520438,266.316074 C339.520438,264.201252 337.806036,262.486849 335.691213,262.486849 Z" id="computer-logo"></path>
        </g>
    </g>
</svg>