<?xml version="1.0" encoding="UTF-8" standalone="no"?>
<svg width="21px" height="21px" viewBox="0 0 21 21" version="1.1" xmlns="http://www.w3.org/2000/svg" xmlns:xlink="http://www.w3.org/1999/xlink">
    <!-- Generator: Sketch 43.2 (39069) - http://www.bohemiancoding.com/sketch -->
    <title>accesibility</title>
    <desc>Created with Sketch.</desc>
    <defs></defs>
    <g id="Page-1" stroke="none" stroke-width="1" fill="none" fill-rule="evenodd">
        <g id="Desktop-HD" transform="translate(-1234.000000, -1756.000000)" fill="#717171">
            <path d="M1250.10158,1763.69921 C1250.00783,1763.30077 1249.60939,1763.05467 1249.19924,1763.14842 C1247.52345,1763.54686 1246.00001,1763.87499 1244.50001,1763.87499 C1243.00001,1763.87499 1241.47657,1763.54686 1239.80079,1763.14842 C1239.39063,1763.05467 1238.99219,1763.30077 1238.89844,1763.69921 C1238.80469,1764.10936 1239.05079,1764.5078 1239.44923,1764.60155 C1240.69141,1764.89452 1241.85157,1765.15233 1243.00001,1765.28124 C1242.95314,1769.24218 1242.51954,1770.34375 1242.02735,1771.60937 L1241.92188,1771.85547 C1241.76954,1772.24219 1241.96876,1772.67578 1242.35548,1772.82812 C1242.43751,1772.86328 1242.53126,1772.875 1242.62501,1772.875 C1242.9297,1772.875 1243.21095,1772.69922 1243.32814,1772.39453 L1243.42189,1772.16015 C1243.75001,1771.3164 1244.0547,1770.53125 1244.25392,1769.12499 L1244.74611,1769.12499 C1244.94533,1770.53125 1245.25001,1771.3164 1245.57814,1772.16015 L1245.67189,1772.39453 C1245.78908,1772.69922 1246.07033,1772.875 1246.37501,1772.875 C1246.46876,1772.875 1246.56251,1772.86328 1246.64455,1772.82812 C1247.03127,1772.67578 1247.23048,1772.24219 1247.07814,1771.85547 L1246.97267,1771.60937 C1246.48048,1770.34375 1246.04689,1769.24218 1246.00001,1765.28124 C1247.14845,1765.15233 1248.30861,1764.89452 1249.5508,1764.60155 C1249.94924,1764.5078 1250.19533,1764.10936 1250.10158,1763.69921 Z M1246.00001,1761.99999 C1246.00001,1761.16795 1245.33204,1760.49998 1244.50001,1760.49998 C1243.66798,1760.49998 1243.00001,1761.16795 1243.00001,1761.99999 C1243.00001,1762.83202 1243.66798,1763.49999 1244.50001,1763.49999 C1245.33204,1763.49999 1246.00001,1762.83202 1246.00001,1761.99999 Z M1252.75002,1766.49999 C1252.75002,1771.05859 1249.05861,1774.75 1244.50001,1774.75 C1239.94141,1774.75 1236.25,1771.05859 1236.25,1766.49999 C1236.25,1761.94139 1239.94141,1758.24998 1244.50001,1758.24998 C1249.05861,1758.24998 1252.75002,1761.94139 1252.75002,1766.49999 Z M1244.50001,1757.49998 C1239.54298,1757.49998 1235.5,1761.54295 1235.5,1766.49999 C1235.5,1771.45703 1239.54298,1775.5 1244.50001,1775.5 C1249.45705,1775.5 1253.50002,1771.45703 1253.50002,1766.49999 C1253.50002,1761.54295 1249.45705,1757.49998 1244.50001,1757.49998 Z M1255.00003,1766.49999 C1255.00003,1772.30078 1250.3008,1777 1244.50001,1777 C1238.69922,1777 1234,1772.30078 1234,1766.49999 C1234,1760.6992 1238.69922,1755.99998 1244.50001,1755.99998 C1250.3008,1755.99998 1255.00003,1760.6992 1255.00003,1766.49999 Z" id="accesibility"></path>
        </g>
    </g>
</svg>