<?xml version="1.0" encoding="UTF-8" standalone="no"?>
<svg width="21px" height="21px" viewBox="0 0 21 21" version="1.1" xmlns="http://www.w3.org/2000/svg" xmlns:xlink="http://www.w3.org/1999/xlink">
    <!-- Generator: Sketch 43.2 (39069) - http://www.bohemiancoding.com/sketch -->
    <title>creative-commons</title>
    <desc>Created with Sketch.</desc>
    <defs></defs>
    <g id="Page-1" stroke="none" stroke-width="1" fill="none" fill-rule="evenodd">
        <g id="Desktop-HD" transform="translate(-1194.000000, -1756.000000)" fill="#717171">
            <path d="M1201.08985,1770.44921 C1198.7461,1770.44921 1197.0586,1768.78515 1197.0586,1766.49999 C1197.0586,1764.24999 1198.78126,1762.55077 1201.08985,1762.55077 C1202.95314,1762.55077 1203.90236,1763.62889 1203.93751,1763.67577 C1204.04298,1763.80468 1204.0547,1763.99218 1203.96095,1764.1328 L1203.33985,1765.04686 C1203.28126,1765.14061 1203.17579,1765.19921 1203.0586,1765.21093 C1202.94142,1765.22265 1202.83595,1765.17577 1202.75392,1765.09374 C1202.75392,1765.09374 1202.10938,1764.43749 1201.13673,1764.43749 C1199.97657,1764.43749 1199.14454,1765.29296 1199.14454,1766.48827 C1199.14454,1767.6953 1200.00001,1768.56249 1201.1836,1768.56249 C1202.26173,1768.56249 1203.00001,1767.77734 1203.01173,1767.77734 C1203.09376,1767.68359 1203.21095,1767.63671 1203.32814,1767.64843 C1203.44532,1767.67187 1203.56251,1767.74218 1203.60939,1767.84765 L1204.13673,1768.80859 C1204.21876,1768.93749 1204.19532,1769.11328 1204.10157,1769.23046 C1204.0547,1769.27734 1203.01173,1770.44921 1201.08985,1770.44921 Z M1208.47267,1770.44921 C1206.12892,1770.44921 1204.44142,1768.78515 1204.44142,1766.49999 C1204.44142,1764.24999 1206.1758,1762.55077 1208.47267,1762.55077 C1210.33596,1762.55077 1211.28518,1763.62889 1211.32033,1763.67577 C1211.4258,1763.80468 1211.43752,1763.99218 1211.34377,1764.1328 L1210.72268,1765.04686 C1210.66408,1765.14061 1210.55861,1765.19921 1210.44143,1765.21093 C1210.32424,1765.22265 1210.21877,1765.17577 1210.13674,1765.09374 C1210.13674,1765.09374 1209.50392,1764.43749 1208.51955,1764.43749 C1207.35939,1764.43749 1206.52736,1765.29296 1206.52736,1766.48827 C1206.52736,1767.6953 1207.38283,1768.56249 1208.56642,1768.56249 C1209.64455,1768.56249 1210.38283,1767.77734 1210.39455,1767.77734 C1210.47658,1767.68359 1210.59377,1767.63671 1210.71096,1767.64843 C1210.83986,1767.67187 1210.94533,1767.74218 1211.00393,1767.84765 L1211.53127,1768.80859 C1211.60158,1768.93749 1211.57815,1769.11328 1211.4844,1769.23046 C1211.43752,1769.27734 1210.40627,1770.44921 1208.47267,1770.44921 Z M1204.50001,1757.87498 C1199.74219,1757.87498 1195.875,1761.74217 1195.875,1766.49999 C1195.875,1771.25781 1199.74219,1775.125 1204.50001,1775.125 C1209.25783,1775.125 1213.12502,1771.25781 1213.12502,1766.49999 C1213.12502,1761.74217 1209.25783,1757.87498 1204.50001,1757.87498 Z M1204.50001,1755.99998 C1210.3008,1755.99998 1215.00003,1760.6992 1215.00003,1766.49999 C1215.00003,1772.30078 1210.3008,1777 1204.50001,1777 C1198.69922,1777 1194,1772.30078 1194,1766.49999 C1194,1760.6992 1198.69922,1755.99998 1204.50001,1755.99998 Z" id="creative-commons"></path>
        </g>
    </g>
</svg>