<?xml version="1.0" encoding="UTF-8" standalone="no"?>
<svg width="15px" height="13px" viewBox="0 0 15 13" version="1.1" xmlns="http://www.w3.org/2000/svg" xmlns:xlink="http://www.w3.org/1999/xlink">
    <!-- Generator: Sketch 43.2 (39069) - http://www.bohemiancoding.com/sketch -->
    <title>external-link</title>
    <desc>Created with Sketch.</desc>
    <defs></defs>
    <g id="Page-1" stroke="none" stroke-width="1" fill="none" fill-rule="evenodd">
        <g id="Desktop-HD" transform="translate(-255.000000, -1799.000000)" fill="#FFFFFF">
            <g id="Group" transform="translate(255.000000, 1797.000000)">
                <path d="M11.7857143,9.91071429 L11.7857143,12.5892857 C11.7857143,13.2533515 11.5499466,13.8211472 11.078404,14.2926897 C10.6068615,14.7642323 10.0390658,15 9.375,15 L2.41071429,15 C1.74664847,15 1.1788528,14.7642323 0.707310268,14.2926897 C0.235767732,13.8211472 0,13.2533515 0,12.5892857 L0,5.625 C0,4.96093418 0.235767732,4.39313852 0.707310268,3.92159598 C1.1788528,3.45005345 1.74664847,3.21428571 2.41071429,3.21428571 L8.30357143,3.21428571 C8.38169682,3.21428571 8.44587028,3.23939707 8.49609375,3.28962054 C8.54631722,3.339844 8.57142857,3.40401747 8.57142857,3.48214286 L8.57142857,4.01785714 C8.57142857,4.09598253 8.54631722,4.160156 8.49609375,4.21037946 C8.44587028,4.26060293 8.38169682,4.28571429 8.30357143,4.28571429 L2.41071429,4.28571429 C2.04240887,4.28571429 1.72712185,4.41685137 1.46484375,4.67912946 C1.20256565,4.94140756 1.07142857,5.25669459 1.07142857,5.625 L1.07142857,12.5892857 C1.07142857,12.9575911 1.20256565,13.2728782 1.46484375,13.5351563 C1.72712185,13.7974343 2.04240887,13.9285714 2.41071429,13.9285714 L9.375,13.9285714 C9.74330541,13.9285714 10.0585924,13.7974343 10.3208705,13.5351563 C10.5831486,13.2728782 10.7142857,12.9575911 10.7142857,12.5892857 L10.7142857,9.91071429 C10.7142857,9.8325889 10.7393971,9.76841543 10.7896205,9.71819196 C10.839844,9.6679685 10.9040175,9.64285714 10.9821429,9.64285714 L11.5178571,9.64285714 C11.5959825,9.64285714 11.660156,9.6679685 11.7103795,9.71819196 C11.7606029,9.76841543 11.7857143,9.8325889 11.7857143,9.91071429 Z M15,2.67857143 L15,6.96428571 C15,7.10937573 14.9469871,7.23493251 14.8409598,7.34095982 C14.7349325,7.44698714 14.6093757,7.5 14.4642857,7.5 C14.3191957,7.5 14.1936389,7.44698714 14.0876116,7.34095982 L12.6143973,5.86774554 L7.15680804,11.3253348 C7.10100419,11.3811387 7.03683072,11.4090402 6.96428571,11.4090402 C6.89174071,11.4090402 6.82756724,11.3811387 6.77176339,11.3253348 L5.81752232,10.3710938 C5.76171847,10.3152899 5.73381696,10.2511164 5.73381696,10.1785714 C5.73381696,10.1060264 5.76171847,10.041853 5.81752232,9.98604911 L11.2751116,4.52845982 L9.80189732,3.05524554 C9.69587001,2.94921822 9.64285714,2.82366144 9.64285714,2.67857143 C9.64285714,2.53348142 9.69587001,2.40792464 9.80189732,2.30189732 C9.90792464,2.19587001 10.0334814,2.14285714 10.1785714,2.14285714 L14.4642857,2.14285714 C14.6093757,2.14285714 14.7349325,2.19587001 14.8409598,2.30189732 C14.9469871,2.40792464 15,2.53348142 15,2.67857143 Z" id="external-link"></path>
            </g>
        </g>
    </g>
</svg>