<?xml version="1.0" encoding="UTF-8" standalone="no"?>
<svg width="18px" height="19px" viewBox="0 0 18 19" version="1.1" xmlns="http://www.w3.org/2000/svg" xmlns:xlink="http://www.w3.org/1999/xlink">
    <!-- Generator: Sketch 43.2 (39069) - http://www.bohemiancoding.com/sketch -->
    <title>github</title>
    <desc>Created with Sketch.</desc>
    <defs></defs>
    <g id="Page-1" stroke="none" stroke-width="1" fill="none" fill-rule="evenodd">
        <g id="Desktop-HD" transform="translate(-1277.000000, -1757.000000)" fill="#717171">
            <path d="M1286.00001,1757.49998 C1290.96877,1757.49998 1295.00002,1761.53124 1295.00002,1766.49999 C1295.00002,1770.47265 1292.42189,1773.84766 1288.84767,1775.04297 C1288.39064,1775.125 1288.22658,1774.84375 1288.22658,1774.60938 C1288.22658,1774.31641 1288.23829,1773.34375 1288.23829,1772.13672 C1288.23829,1771.29297 1287.95704,1770.7539 1287.62892,1770.47265 C1289.63283,1770.25 1291.74221,1769.48828 1291.74221,1766.03124 C1291.74221,1765.04686 1291.39064,1764.24999 1290.81642,1763.61718 C1290.91017,1763.3828 1291.21486,1762.46874 1290.72267,1761.22655 C1289.97267,1760.99217 1288.25001,1762.15233 1288.25001,1762.15233 C1287.53517,1761.95311 1286.76173,1761.84764 1286.00001,1761.84764 C1285.23829,1761.84764 1284.46485,1761.95311 1283.75001,1762.15233 C1283.75001,1762.15233 1282.02735,1760.99217 1281.27735,1761.22655 C1280.78516,1762.46874 1281.08985,1763.3828 1281.1836,1763.61718 C1280.60938,1764.24999 1280.25782,1765.04686 1280.25782,1766.03124 C1280.25782,1769.47656 1282.35548,1770.25 1284.35938,1770.47265 C1284.10157,1770.70703 1283.8672,1771.10547 1283.78516,1771.67968 C1283.26954,1771.91406 1281.95704,1772.3125 1281.17188,1770.92968 C1280.67969,1770.07421 1279.78907,1770.0039 1279.78907,1770.0039 C1278.91016,1769.99218 1279.73047,1770.55468 1279.73047,1770.55468 C1280.31641,1770.82421 1280.72657,1771.86718 1280.72657,1771.86718 C1281.25391,1773.47266 1283.76173,1772.93359 1283.76173,1772.93359 C1283.76173,1773.68359 1283.77345,1774.38672 1283.77345,1774.60938 C1283.77345,1774.84375 1283.60938,1775.125 1283.15235,1775.04297 C1279.57813,1773.84766 1277,1770.47265 1277,1766.49999 C1277,1761.53124 1281.03125,1757.49998 1286.00001,1757.49998 Z M1280.41016,1770.42578 C1280.38672,1770.47265 1280.31641,1770.48437 1280.25782,1770.44921 C1280.1875,1770.41406 1280.15235,1770.35546 1280.17579,1770.30859 C1280.19922,1770.27343 1280.25782,1770.26171 1280.32813,1770.28515 C1280.39844,1770.32031 1280.4336,1770.3789 1280.41016,1770.42578 Z M1280.77344,1770.82421 C1280.72657,1770.87109 1280.64454,1770.84765 1280.58594,1770.78906 C1280.52735,1770.71875 1280.51563,1770.63671 1280.5625,1770.60156 C1280.60938,1770.55468 1280.69141,1770.57812 1280.75,1770.63671 C1280.8086,1770.70703 1280.82032,1770.78906 1280.77344,1770.82421 Z M1281.125,1771.35156 C1281.07813,1771.38672 1280.98438,1771.35156 1280.92579,1771.26953 C1280.86719,1771.1875 1280.86719,1771.09375 1280.92579,1771.05859 C1280.98438,1771.01172 1281.07813,1771.04687 1281.125,1771.1289 C1281.1836,1771.21093 1281.1836,1771.30468 1281.125,1771.35156 Z M1281.61719,1771.84375 C1281.57032,1771.90234 1281.46485,1771.89062 1281.38282,1771.80859 C1281.30079,1771.73828 1281.27735,1771.63281 1281.33594,1771.58593 C1281.38282,1771.52734 1281.48829,1771.53906 1281.57032,1771.62109 C1281.64063,1771.6914 1281.66407,1771.79687 1281.61719,1771.84375 Z M1282.28516,1772.13672 C1282.26173,1772.20703 1282.15626,1772.24219 1282.06251,1772.20703 C1281.95704,1772.18359 1281.88672,1772.10156 1281.91016,1772.03125 C1281.9336,1771.96094 1282.03907,1771.92578 1282.13282,1771.94922 C1282.23829,1771.98437 1282.3086,1772.0664 1282.28516,1772.13672 Z M1283.02344,1772.19531 C1283.02344,1772.26562 1282.94141,1772.32422 1282.83594,1772.32422 C1282.71876,1772.33594 1282.63673,1772.27734 1282.63673,1772.19531 C1282.63673,1772.125 1282.71876,1772.0664 1282.82423,1772.0664 C1282.92969,1772.05469 1283.02344,1772.11328 1283.02344,1772.19531 Z M1283.70313,1772.07812 C1283.71485,1772.14844 1283.64454,1772.21875 1283.53907,1772.24219 C1283.4336,1772.26562 1283.33985,1772.21875 1283.32813,1772.14844 C1283.31641,1772.0664 1283.38673,1771.99609 1283.4922,1771.97265 C1283.59766,1771.96094 1283.69141,1772.00781 1283.70313,1772.07812 Z" id="github"></path>
        </g>
    </g>
</svg>